<?xml version="1.0" standalone="no"?>
<!DOCTYPE svg PUBLIC "-//W3C//DTD SVG 20010904//EN"
 "http://www.w3.org/TR/2001/REC-SVG-20010904/DTD/svg10.dtd">
<svg version="1.0" xmlns="http://www.w3.org/2000/svg"
 width="250.000000pt" height="250.000000pt" viewBox="0 0 250.000000 250.000000"
 preserveAspectRatio="xMidYMid meet">
<metadata>
Created by potrace 1.11, written by Peter Selinger 2001-2013
</metadata>
<g transform="translate(0.000000,250.000000) scale(0.100000,-0.100000)"
fill="#000000" stroke="none">
<path d="M369 2404 c-6 -7 -12 -28 -14 -46 -3 -18 -7 -49 -9 -68 -3 -19 -8
-55 -11 -80 -4 -25 -8 -56 -10 -70 -2 -14 -6 -43 -9 -65 -3 -22 -11 -74 -16
-115 -6 -41 -13 -91 -16 -110 -2 -19 -7 -53 -10 -75 -7 -44 -9 -55 -19 -134
-4 -30 -8 -63 -11 -74 -2 -10 -6 -45 -9 -76 -4 -31 -8 -63 -10 -71 -2 -8 -6
-33 -9 -55 -3 -22 -13 -89 -21 -150 -9 -60 -18 -126 -21 -145 -2 -19 -7 -51
-10 -70 -2 -19 -7 -55 -10 -80 -3 -25 -9 -70 -14 -100 -5 -30 -12 -77 -15
-105 -3 -27 -10 -77 -15 -110 -15 -103 -19 -128 -25 -180 -3 -27 -8 -59 -10
-70 -2 -11 -7 -42 -10 -70 -3 -27 -10 -74 -15 -103 -13 -75 -2 -92 58 -93 296
-4 745 0 753 8 11 11 14 24 23 103 4 30 11 78 16 105 5 28 12 73 15 100 7 55
8 62 31 220 9 61 18 126 20 145 6 47 64 459 69 490 2 14 7 48 11 75 3 28 8 57
9 66 2 9 6 40 10 69 4 29 8 61 10 70 2 9 6 41 10 71 3 30 10 79 15 109 5 30
12 78 15 105 3 28 10 77 15 110 5 33 11 78 15 100 3 21 10 42 15 45 5 3 96 5
202 5 l193 0 -1 -40 c0 -22 -4 -62 -8 -90 -4 -27 -9 -66 -12 -85 -2 -19 -6
-48 -9 -65 -3 -16 -7 -48 -10 -70 -3 -22 -7 -53 -10 -70 -24 -155 -25 -174 -9
-190 13 -13 72 -15 404 -15 425 0 419 -1 421 58 0 15 2 34 3 42 2 8 7 40 11
70 4 30 8 62 10 71 1 8 6 40 9 70 4 30 8 65 11 79 2 14 9 61 15 105 15 109 18
132 25 190 4 28 8 57 10 65 2 8 7 40 10 70 3 30 8 66 10 80 11 59 78 55 -1035
56 -814 1 -1022 -2 -1031 -12z"/>
</g>
</svg>
