<?xml version="1.0" encoding="utf-8"?>
<!-- Generator: Adobe Illustrator 16.0.0, SVG Export Plug-In . SVG Version: 6.00 Build 0)  -->
<!DOCTYPE svg PUBLIC "-//W3C//DTD SVG 1.1//EN" "http://www.w3.org/Graphics/SVG/1.1/DTD/svg11.dtd">
<svg version="1.1" id="Layer_1" xmlns="http://www.w3.org/2000/svg" xmlns:xlink="http://www.w3.org/1999/xlink" x="0px" y="0px"
	 width="750px" height="650px" viewBox="0 0 750 650" enable-background="new 0 0 750 650" xml:space="preserve">
<g>
	<polygon points="108.365,488.48 372.81,560.602 372.81,89.398 108.365,206.006 	"/>
	<polygon points="642.571,488.48 378.127,560.602 378.127,89.398 642.571,206.006 	"/>
	<path fill="#FFFFFF" d="M195.73,399.763l-45.978-0.031c-0.66,0-1.287-0.291-1.721-0.788c-0.433-0.494-0.626-1.147-0.536-1.799
		l18.239-130.187c0.168-1.206,1.201-2.337,2.424-2.658l157.765-41.299c1.216-0.319,2.368-0.234,3.172,0.231
		c0.806,0.463,1.17,1.266,1.006,2.199l-12.338,68.706c-0.282,1.556-2.008,2.941-4.029,3.252l-67.136,10.351
		c-0.947,0.146-1.843-0.054-2.455-0.55c-0.615-0.497-0.893-1.239-0.767-2.034l6.53-39.939l-31.934,7.167l-19.528,125.225
		C198.253,398.839,197.092,399.764,195.73,399.763z M152.396,395.156l40.972-0.346l19.161-124.125
		c0.202-1.31,1.431-2.538,2.889-2.879l38.313-8.95c0.968-0.226,1.896-0.095,2.536,0.357c0.642,0.459,0.932,1.195,0.795,2.021
		l-6.685,40.455l59.86-9.775l10.908-61.538l-150.836,38.105L152.396,395.156z"/>
</g>
</svg>
