<?xml version="1.0" encoding="utf-8"?>
<!-- Generator: Adobe Illustrator 16.0.0, SVG Export Plug-In . SVG Version: 6.00 Build 0)  -->
<!DOCTYPE svg PUBLIC "-//W3C//DTD SVG 1.1//EN" "http://www.w3.org/Graphics/SVG/1.1/DTD/svg11.dtd">
<svg version="1.1" id="Layer_1" xmlns="http://www.w3.org/2000/svg" xmlns:xlink="http://www.w3.org/1999/xlink" x="0px" y="0px"
	 width="750px" height="650px" viewBox="0 0 750 650" enable-background="new 0 0 750 650" xml:space="preserve">
<g>
	<polygon points="19.33,542.974 371.923,639.136 371.923,10.864 19.33,166.341 	"/>
	<polygon points="731.605,542.974 379.014,639.136 379.014,10.864 731.605,166.341 	"/>
	<path fill="#FFFFFF" d="M135.817,424.684l-61.303-0.041c-0.88,0-1.715-0.388-2.294-1.05c-0.577-0.659-0.834-1.53-0.714-2.399
		L95.824,247.61c0.224-1.607,1.602-3.116,3.232-3.543l210.354-55.066c1.622-0.425,3.157-0.312,4.229,0.309
		c1.074,0.618,1.56,1.688,1.342,2.933l-16.45,91.607c-0.377,2.074-2.677,3.922-5.373,4.336l-89.515,13.801
		c-1.263,0.195-2.458-0.072-3.273-0.733c-0.82-0.663-1.19-1.652-1.022-2.711l8.707-53.253l-42.579,9.557l-26.038,166.967
		C139.181,423.452,137.633,424.685,135.817,424.684z M78.038,418.541l54.629-0.462l25.548-165.5c0.27-1.747,1.909-3.384,3.852-3.839
		l51.084-11.933c1.29-0.301,2.527-0.127,3.38,0.477c0.856,0.611,1.242,1.593,1.06,2.695l-8.914,53.94l79.814-13.034l14.543-82.05
		l-201.114,50.807L78.038,418.541z"/>
</g>
</svg>
