<?xml version="1.0" encoding="utf-8"?>
<!-- Generator: Adobe Illustrator 16.0.0, SVG Export Plug-In . SVG Version: 6.00 Build 0)  -->
<!DOCTYPE svg PUBLIC "-//W3C//DTD SVG 1.1//EN" "http://www.w3.org/Graphics/SVG/1.1/DTD/svg11.dtd">
<svg version="1.1" id="Layer_1" xmlns="http://www.w3.org/2000/svg" xmlns:xlink="http://www.w3.org/1999/xlink" x="0px" y="0px"
	 width="371.666px" height="58.333px" viewBox="0 0 371.666 58.333" enable-background="new 0 0 371.666 58.333"
	 xml:space="preserve">
<g>
	<path fill="#DA0388" d="M44.127,29.136h-13.86l1.62-11.52h-9.18l-5.22,36.901h-13.8l5.82-41.521h36.84L44.127,29.136z"/>
	<path fill="#00B9F2" d="M17.487,55.267h-13.8c-0.217,0-0.423-0.094-0.566-0.258s-0.207-0.381-0.177-0.597l5.82-41.52
		c0.052-0.371,0.369-0.646,0.743-0.646h36.84c0.217,0,0.423,0.094,0.565,0.257c0.142,0.163,0.207,0.38,0.178,0.595l-2.22,16.14
		c-0.051,0.372-0.369,0.648-0.743,0.648h-13.86c-0.217,0-0.424-0.094-0.566-0.258c-0.143-0.164-0.207-0.382-0.177-0.597l1.5-10.666
		h-7.666l-5.129,36.256C18.177,54.991,17.86,55.267,17.487,55.267z M4.549,53.767h12.286l5.129-36.256
		c0.052-0.37,0.369-0.645,0.743-0.645h9.18c0.217,0,0.424,0.094,0.566,0.258c0.143,0.164,0.207,0.382,0.177,0.597l-1.5,10.666
		h12.344l2.013-14.64H10.159L4.549,53.767z"/>
</g>
<g>
	<path fill="#DA0388" d="M80.51,54.517H43.67l5.82-41.521h36.84L80.51,54.517z M67.31,49.896l4.56-32.28h-9.18l-4.56,32.28H67.31z"
		/>
	<path fill="#00B9F2" d="M80.51,55.267H43.67c-0.217,0-0.423-0.094-0.566-0.258s-0.207-0.381-0.177-0.597l5.82-41.52
		c0.052-0.371,0.369-0.646,0.743-0.646h36.84c0.217,0,0.423,0.094,0.566,0.258c0.143,0.164,0.207,0.381,0.177,0.596l-5.82,41.521
		C81.201,54.991,80.884,55.267,80.51,55.267z M44.533,53.767h35.325l5.61-40.021H50.143L44.533,53.767z M67.31,50.646h-9.18
		c-0.217,0-0.424-0.094-0.566-0.258c-0.142-0.164-0.207-0.382-0.176-0.597l4.56-32.28c0.052-0.37,0.369-0.645,0.743-0.645h9.18
		c0.217,0,0.424,0.094,0.566,0.258c0.142,0.164,0.207,0.381,0.176,0.597L68.053,50C68,50.37,67.684,50.646,67.31,50.646z
		 M58.994,49.146h7.665l4.348-30.78h-7.665L58.994,49.146z"/>
</g>
<g>
	<path fill="#DA0388" d="M123.578,54.517H86.738l5.82-41.521h36.84l-2.22,16.14h-13.86l1.62-11.52h-9.18l-4.56,32.28h9.18
		l1.62-11.52h13.86L123.578,54.517z"/>
	<path fill="#00B9F2" d="M123.578,55.267H86.738c-0.217,0-0.423-0.094-0.566-0.258s-0.207-0.381-0.177-0.597l5.82-41.52
		c0.052-0.371,0.369-0.646,0.743-0.646h36.84c0.217,0,0.423,0.094,0.565,0.257c0.142,0.163,0.207,0.38,0.178,0.595l-2.22,16.14
		c-0.051,0.372-0.369,0.648-0.743,0.648h-13.86c-0.217,0-0.424-0.094-0.566-0.258c-0.143-0.164-0.207-0.382-0.177-0.597l1.5-10.666
		h-7.666l-4.348,30.78h7.665l1.529-10.874c0.052-0.37,0.369-0.646,0.743-0.646h13.86c0.217,0,0.424,0.094,0.566,0.258
		c0.142,0.164,0.207,0.382,0.176,0.597l-2.28,16.141C124.268,54.991,123.951,55.267,123.578,55.267z M87.601,53.767h35.326
		l2.068-14.641H112.65L111.121,50c-0.052,0.37-0.369,0.646-0.743,0.646h-9.18c-0.217,0-0.424-0.094-0.566-0.258
		c-0.142-0.164-0.207-0.382-0.176-0.597l4.56-32.28c0.052-0.37,0.369-0.645,0.743-0.645h9.18c0.217,0,0.424,0.094,0.566,0.258
		c0.143,0.164,0.207,0.382,0.177,0.597l-1.5,10.666h12.344l2.013-14.64H93.21L87.601,53.767z"/>
</g>
<g>
	<path fill="#DA0388" d="M166.022,54.517h-14.16l-3.66-36.901l-5.16,36.901h-13.86l7.141-50.701h13.8l-1.32,9.18h23.101l-0.66,4.62
		l-8.76,0.06L166.022,54.517z"/>
	<path fill="#00B9F2" d="M166.042,55.267c-0.006,0-0.013-0.001-0.02,0h-14.16c-0.386,0-0.708-0.292-0.747-0.676l-3.04-30.654
		l-4.291,30.683c-0.052,0.371-0.369,0.646-0.743,0.646h-13.86c-0.217,0-0.424-0.094-0.566-0.258
		c-0.143-0.164-0.207-0.382-0.177-0.597l7.141-50.701c0.052-0.37,0.369-0.646,0.743-0.646h13.8c0.218,0,0.424,0.094,0.567,0.259
		s0.207,0.383,0.175,0.598l-1.197,8.323h22.235c0.217,0,0.424,0.094,0.566,0.259c0.143,0.164,0.207,0.382,0.176,0.597l-0.66,4.62
		c-0.053,0.368-0.366,0.642-0.737,0.644l-7.94,0.054l3.445,35.855c0.025,0.075,0.04,0.156,0.04,0.241
		C166.792,54.931,166.456,55.267,166.042,55.267z M152.541,53.767h12.655l-3.461-36.019c-0.02-0.209,0.049-0.418,0.19-0.574
		c0.141-0.156,0.341-0.246,0.551-0.248l8.114-0.056l0.446-3.124h-22.236c-0.218,0-0.424-0.094-0.567-0.259s-0.207-0.383-0.175-0.598
		l1.197-8.323h-12.282l-6.93,49.201h12.345l5.07-36.255c0.052-0.376,0.342-0.633,0.758-0.646c0.379,0.008,0.694,0.298,0.731,0.676
		L152.541,53.767z"/>
</g>
<g>
	<path fill="#DA0388" d="M184.033,10.718c-1.38,5.04-3.959,11.459-5.64,14.219l-3.359,0.42c1.319-3.54,2.88-9.779,3.54-14.1
		L184.033,10.718z"/>
	<path fill="#00B9F2" d="M175.034,26.107c-0.228,0-0.445-0.104-0.588-0.285c-0.163-0.206-0.206-0.481-0.114-0.727
		c1.302-3.493,2.84-9.621,3.501-13.951c0.052-0.339,0.326-0.6,0.667-0.633l5.459-0.54c0.246-0.025,0.488,0.075,0.647,0.263
		c0.159,0.189,0.215,0.444,0.15,0.682c-1.352,4.938-3.973,11.538-5.722,14.411c-0.119,0.195-0.321,0.326-0.547,0.354l-3.359,0.42
		C175.096,26.105,175.064,26.107,175.034,26.107z M179.224,11.947c-0.642,3.91-1.906,9.03-3.079,12.516l1.79-0.224
		c1.562-2.705,3.747-8.173,5.074-12.666L179.224,11.947z"/>
</g>
<g>
	<path fill="#DA0388" d="M221.658,54.517h-13.8l5.16-36.901h-9.18l-5.22,36.901h-13.801l5.82-41.521h36.84L221.658,54.517z"/>
	<path fill="#00B9F2" d="M221.658,55.267h-13.8c-0.217,0-0.424-0.094-0.565-0.258c-0.143-0.164-0.207-0.381-0.178-0.596
		l5.041-36.047h-7.666l-5.129,36.256c-0.052,0.369-0.368,0.645-0.742,0.645h-13.801c-0.217,0-0.423-0.094-0.566-0.258
		s-0.207-0.381-0.177-0.597l5.82-41.52c0.052-0.371,0.369-0.646,0.743-0.646h36.84c0.217,0,0.424,0.094,0.566,0.258
		c0.142,0.164,0.206,0.381,0.177,0.596l-5.82,41.521C222.348,54.991,222.032,55.267,221.658,55.267z M208.72,53.767h12.285
		l5.61-40.021h-35.325l-5.61,40.021h12.287l5.129-36.256c0.052-0.37,0.368-0.645,0.742-0.645h9.18c0.217,0,0.424,0.094,0.565,0.258
		c0.143,0.164,0.207,0.381,0.178,0.596L208.72,53.767z"/>
</g>
<g>
	<path fill="#DA0388" d="M240.443,10.718c-1.38,5.04-3.959,11.459-5.64,14.219l-3.359,0.42c1.319-3.54,2.88-9.779,3.54-14.1
		L240.443,10.718z"/>
	<path fill="#00B9F2" d="M231.444,26.107c-0.228,0-0.445-0.104-0.588-0.285c-0.163-0.206-0.206-0.481-0.115-0.727
		c1.302-3.493,2.84-9.621,3.502-13.951c0.052-0.339,0.326-0.6,0.667-0.633l5.459-0.54c0.257-0.025,0.488,0.075,0.647,0.263
		c0.159,0.189,0.216,0.444,0.15,0.682c-1.353,4.938-3.973,11.538-5.723,14.411c-0.119,0.195-0.32,0.326-0.548,0.354l-3.359,0.42
		C231.505,26.105,231.475,26.107,231.444,26.107z M235.634,11.947c-0.643,3.91-1.906,9.03-3.079,12.516l1.79-0.224
		c1.562-2.705,3.747-8.173,5.074-12.666L235.634,11.947z"/>
</g>
<g>
	<path fill="#DA0388" d="M277.764,54.517h-36.841l7.141-50.701h13.8l-6.479,46.08h9.239l4.5-32.28h-6.899l0.66-4.62h20.76
		L277.764,54.517z"/>
	<path fill="#00B9F2" d="M277.764,55.267h-36.841c-0.217,0-0.424-0.094-0.566-0.258s-0.207-0.382-0.176-0.597l7.141-50.701
		c0.052-0.37,0.368-0.646,0.742-0.646h13.8c0.217,0,0.424,0.094,0.566,0.258c0.142,0.164,0.206,0.382,0.177,0.597l-6.359,45.225
		h7.724l4.291-30.78h-6.038c-0.218,0-0.424-0.094-0.566-0.259c-0.143-0.164-0.207-0.382-0.176-0.597l0.66-4.62
		c0.053-0.37,0.369-0.644,0.742-0.644h20.76c0.217,0,0.424,0.094,0.566,0.258s0.207,0.382,0.176,0.597l-5.88,41.521
		C278.455,54.991,278.138,55.267,277.764,55.267z M241.787,53.767h35.326l5.668-40.021h-19.246l-0.445,3.12h6.034
		c0.217,0,0.423,0.094,0.565,0.258c0.143,0.164,0.207,0.381,0.178,0.596l-4.5,32.28c-0.052,0.371-0.369,0.646-0.743,0.646h-9.239
		c-0.217,0-0.424-0.094-0.566-0.258c-0.142-0.164-0.206-0.382-0.177-0.597L261,4.566h-12.285L241.787,53.767z"/>
</g>
<g>
	<path fill="#DA0388" d="M321.167,54.517h-36.84l5.82-41.521h36.84L321.167,54.517z M307.968,49.896l4.56-32.28h-9.18l-4.561,32.28
		H307.968z"/>
	<path fill="#00B9F2" d="M321.167,55.267h-36.84c-0.217,0-0.424-0.094-0.566-0.258c-0.142-0.164-0.206-0.381-0.177-0.597l5.82-41.52
		c0.053-0.371,0.369-0.646,0.743-0.646h36.84c0.217,0,0.424,0.094,0.566,0.258c0.142,0.164,0.206,0.381,0.177,0.596l-5.82,41.521
		C321.857,54.991,321.541,55.267,321.167,55.267z M285.189,53.767h35.326l5.61-40.021h-35.326L285.189,53.767z M307.968,50.646
		h-9.181c-0.217,0-0.424-0.094-0.566-0.258s-0.207-0.382-0.176-0.597l4.561-32.28c0.052-0.37,0.368-0.645,0.742-0.645h9.18
		c0.217,0,0.424,0.094,0.566,0.258s0.207,0.381,0.176,0.597L308.71,50C308.658,50.37,308.342,50.646,307.968,50.646z M299.65,49.146
		h7.667l4.348-30.78h-7.665L299.65,49.146z"/>
</g>
<g>
	<path fill="#DA0388" d="M367.979,12.996l-10.74,20.76l4.92,20.761H347.34l-2.28-9.361l-4.979,9.361h-14.761l10.74-20.761
		l-4.92-20.76h14.82l2.279,9.36l4.98-9.36H367.979z"/>
	<path fill="#00B9F2" d="M362.179,55.267c-0.005,0.001-0.013,0.001-0.02,0H347.34c-0.346,0-0.646-0.236-0.729-0.572l-1.814-7.448
		l-4.055,7.623c-0.13,0.244-0.385,0.397-0.662,0.397h-14.761c-0.262,0-0.505-0.137-0.641-0.36s-0.146-0.502-0.025-0.734
		l10.612-20.514l-4.855-20.489c-0.053-0.223-0.001-0.458,0.142-0.638c0.142-0.18,0.358-0.285,0.588-0.285h14.82
		c0.346,0,0.646,0.236,0.729,0.573l1.813,7.447l4.056-7.622c0.13-0.245,0.385-0.397,0.662-0.397h14.76
		c0.262,0,0.505,0.137,0.641,0.36c0.136,0.223,0.146,0.502,0.025,0.734l-10.612,20.513l4.817,20.329
		c0.051,0.101,0.078,0.214,0.078,0.334C362.929,54.931,362.594,55.267,362.179,55.267z M347.929,53.767h13.282l-4.701-19.838
		c-0.042-0.175-0.02-0.358,0.063-0.518l10.174-19.665H353.67l-4.769,8.962c-0.146,0.275-0.45,0.43-0.756,0.392
		c-0.309-0.039-0.562-0.264-0.635-0.567l-2.14-8.787h-13.283l4.701,19.837c0.042,0.175,0.02,0.358-0.063,0.518l-10.174,19.666
		h13.078l4.768-8.964c0.146-0.273,0.453-0.431,0.756-0.392c0.309,0.039,0.562,0.265,0.635,0.566L347.929,53.767z"/>
</g>
</svg>
