<?xml version="1.0" encoding="utf-8"?>
<!-- Generator: Adobe Illustrator 16.0.0, SVG Export Plug-In . SVG Version: 6.00 Build 0)  -->
<!DOCTYPE svg PUBLIC "-//W3C//DTD SVG 1.1//EN" "http://www.w3.org/Graphics/SVG/1.1/DTD/svg11.dtd">
<svg version="1.1" id="Layer_1" xmlns="http://www.w3.org/2000/svg" xmlns:xlink="http://www.w3.org/1999/xlink" x="0px" y="0px"
	 width="800px" height="600px" viewBox="0 0 800 600" enable-background="new 0 0 800 600" xml:space="preserve">
<polygon points="12.546,500.451 336.795,588.884 336.795,11.116 12.546,154.095 "/>
<polygon points="787.831,500.451 343.316,588.884 343.316,11.116 787.831,154.095 "/>
<path fill="#FFFFFF" d="M119.669,408.484l-56.375-0.037c-0.809,0-1.577-0.355-2.11-0.965c-0.53-0.605-0.768-1.408-0.657-2.207
	l22.363-159.628c0.206-1.478,1.473-2.866,2.973-3.259l193.444-50.64c1.491-0.391,2.903-0.287,3.889,0.284
	c0.988,0.568,1.435,1.553,1.234,2.697l-15.128,84.244c-0.346,1.907-2.462,3.606-4.941,3.988l-82.319,12.691
	c-1.161,0.179-2.26-0.066-3.01-0.675c-0.754-0.61-1.094-1.519-0.939-2.494l8.006-48.972l-39.156,8.788l-23.944,153.545
	C122.763,407.354,121.339,408.486,119.669,408.484z M66.535,402.836l50.238-0.424l23.495-152.195
	c0.248-1.607,1.755-3.112,3.542-3.53l46.978-10.974c1.187-0.276,2.324-0.117,3.109,0.438c0.787,0.562,1.143,1.465,0.975,2.478
	l-8.197,49.604l73.398-11.986l13.375-75.455L88.498,247.515L66.535,402.836z"/>
</svg>
